<?xml version="1.0" encoding="UTF-8" standalone="no"?>
<!DOCTYPE svg PUBLIC "-//W3C//DTD SVG 1.1 Tiny//EN" "http://www.w3.org/Graphics/SVG/1.1/DTD/svg11-tiny.dtd">
<svg xmlns="http://www.w3.org/2000/svg" xmlns:xlink="http://www.w3.org/1999/xlink" baseProfile="tiny" height="44" version="1.0" width="44">
<defs>
<linearGradient id="linearGradient4527">
<stop offset="0" style="stop-color:#ffddff;stop-opacity:1;"/>
<stop offset="0.95833331" style="stop-color:#ffddff;stop-opacity:1;"/>
<stop offset="1" style="stop-color:#57006c;stop-opacity:1;"/>
</linearGradient>
<linearGradient id="linearGradient3017">
<stop offset="0" style="stop-color:#8800aa;stop-opacity:1;"/>
<stop offset="1" style="stop-color:#8800aa;stop-opacity:0;"/>
</linearGradient>
<g>
<use height="1052.3622" width="744.09448" x="-6" xlink:href="#bar_black" y="0"/>
<use height="1052.3622" width="744.09448" x="-4" xlink:href="#bar_black" y="0"/>
<use height="1052.3622" width="744.09448" x="-2" xlink:href="#bar_black" y="0"/>
<use height="1052.3622" width="744.09448" x="0" xlink:href="#bar_white" y="0"/>
<use height="1052.3622" width="744.09448" x="2" xlink:href="#bar_black" y="0"/>
<use height="1052.3622" width="744.09448" x="4" xlink:href="#bar_white" y="0"/>
<use height="1052.3622" width="744.09448" x="6" xlink:href="#bar_white" y="0"/>
</g>
<g>
<use height="1052.3622" width="744.09448" x="-6" xlink:href="#bar_black" y="0"/>
<use height="1052.3622" width="744.09448" x="-4" xlink:href="#bar_white" y="0"/>
<use height="1052.3622" width="744.09448" x="-2" xlink:href="#bar_white" y="0"/>
<use height="1052.3622" width="744.09448" x="0" xlink:href="#bar_black" y="0"/>
<use height="1052.3622" width="744.09448" x="2" xlink:href="#bar_white" y="0"/>
<use height="1052.3622" width="744.09448" x="4" xlink:href="#bar_white" y="0"/>
<use height="1052.3622" width="744.09448" x="6" xlink:href="#bar_white" y="0"/>
</g>
<g>
<use height="1052.3622" width="744.09448" x="-6" xlink:href="#bar_black" y="0"/>
<use height="1052.3622" width="744.09448" x="-4" xlink:href="#bar_white" y="0"/>
<use height="1052.3622" width="744.09448" x="-2" xlink:href="#bar_white" y="0"/>
<use height="1052.3622" width="744.09448" x="0" xlink:href="#bar_white" y="0"/>
<use height="1052.3622" width="744.09448" x="2" xlink:href="#bar_black" y="0"/>
<use height="1052.3622" width="744.09448" x="4" xlink:href="#bar_white" y="0"/>
<use height="1052.3622" width="744.09448" x="6" xlink:href="#bar_white" y="0"/>
</g>
<g>
<use height="1052.3622" width="744.09448" x="-6" xlink:href="#bar_black" y="0"/>
<use height="1052.3622" width="744.09448" x="-4" xlink:href="#bar_white" y="0"/>
<use height="1052.3622" width="744.09448" x="-2" xlink:href="#bar_black" y="0"/>
<use height="1052.3622" width="744.09448" x="0" xlink:href="#bar_white" y="0"/>
<use height="1052.3622" width="744.09448" x="2" xlink:href="#bar_white" y="0"/>
<use height="1052.3622" width="744.09448" x="4" xlink:href="#bar_white" y="0"/>
<use height="1052.3622" width="744.09448" x="6" xlink:href="#bar_white" y="0"/>
</g>
<g>
<use height="1052.3622" width="744.09448" x="-6" xlink:href="#bar_black" y="0"/>
<use height="1052.3622" width="744.09448" x="-4" xlink:href="#bar_white" y="0"/>
<use height="1052.3622" width="744.09448" x="-2" xlink:href="#bar_white" y="0"/>
<use height="1052.3622" width="744.09448" x="0" xlink:href="#bar_black" y="0"/>
<use height="1052.3622" width="744.09448" x="2" xlink:href="#bar_black" y="0"/>
<use height="1052.3622" width="744.09448" x="4" xlink:href="#bar_black" y="0"/>
<use height="1052.3622" width="744.09448" x="6" xlink:href="#bar_white" y="0"/>
</g>
<g>
<use height="1052.3622" width="744.09448" x="-6" xlink:href="#bar_black" y="0"/>
<use height="1052.3622" width="744.09448" x="-4" xlink:href="#bar_white" y="0"/>
<use height="1052.3622" width="744.09448" x="-2" xlink:href="#bar_black" y="0"/>
<use height="1052.3622" width="744.09448" x="0" xlink:href="#bar_black" y="0"/>
<use height="1052.3622" width="744.09448" x="2" xlink:href="#bar_black" y="0"/>
<use height="1052.3622" width="744.09448" x="4" xlink:href="#bar_white" y="0"/>
<use height="1052.3622" width="744.09448" x="6" xlink:href="#bar_white" y="0"/>
</g>
<g>
<use height="1052.3622" width="744.09448" x="-6" xlink:href="#bar_black" y="0"/>
<use height="1052.3622" width="744.09448" x="-4" xlink:href="#bar_white" y="0"/>
<use height="1052.3622" width="744.09448" x="-2" xlink:href="#bar_white" y="0"/>
<use height="1052.3622" width="744.09448" x="0" xlink:href="#bar_white" y="0"/>
<use height="1052.3622" width="744.09448" x="2" xlink:href="#bar_white" y="0"/>
<use height="1052.3622" width="744.09448" x="4" xlink:href="#bar_black" y="0"/>
<use height="1052.3622" width="744.09448" x="6" xlink:href="#bar_white" y="0"/>
</g>
<g>
<use height="1052.3622" width="744.09448" x="-6" xlink:href="#bar_black" y="0"/>
<use height="1052.3622" width="744.09448" x="-4" xlink:href="#bar_black" y="0"/>
<use height="1052.3622" width="744.09448" x="-2" xlink:href="#bar_white" y="0"/>
<use height="1052.3622" width="744.09448" x="0" xlink:href="#bar_black" y="0"/>
<use height="1052.3622" width="744.09448" x="2" xlink:href="#bar_black" y="0"/>
<use height="1052.3622" width="744.09448" x="4" xlink:href="#bar_white" y="0"/>
<use height="1052.3622" width="744.09448" x="6" xlink:href="#bar_white" y="0"/>
</g>
<g>
<use height="1052.3622" width="744.09448" x="-6" xlink:href="#bar_black" y="0"/>
<use height="1052.3622" width="744.09448" x="-4" xlink:href="#bar_black" y="0"/>
<use height="1052.3622" width="744.09448" x="-2" xlink:href="#bar_white" y="0"/>
<use height="1052.3622" width="744.09448" x="0" xlink:href="#bar_white" y="0"/>
<use height="1052.3622" width="744.09448" x="2" xlink:href="#bar_black" y="0"/>
<use height="1052.3622" width="744.09448" x="4" xlink:href="#bar_black" y="0"/>
<use height="1052.3622" width="744.09448" x="6" xlink:href="#bar_white" y="0"/>
</g>
<g>
<use height="1052.3622" width="744.09448" x="-6" xlink:href="#bar_black" y="0"/>
<use height="1052.3622" width="744.09448" x="-4" xlink:href="#bar_black" y="0"/>
<use height="1052.3622" width="744.09448" x="-2" xlink:href="#bar_black" y="0"/>
<use height="1052.3622" width="744.09448" x="0" xlink:href="#bar_white" y="0"/>
<use height="1052.3622" width="744.09448" x="2" xlink:href="#bar_white" y="0"/>
<use height="1052.3622" width="744.09448" x="4" xlink:href="#bar_black" y="0"/>
<use height="1052.3622" width="744.09448" x="6" xlink:href="#bar_white" y="0"/>
</g>
<g>
<use height="1052.3622" width="744.09448" x="-6" xlink:href="#bar_white" y="0"/>
<use height="1052.3622" width="744.09448" x="-4" xlink:href="#bar_white" y="0"/>
<use height="1052.3622" width="744.09448" x="-2" xlink:href="#bar_white" y="0"/>
<use height="1052.3622" width="744.09448" x="0" xlink:href="#bar_black" y="0"/>
<use height="1052.3622" width="744.09448" x="2" xlink:href="#bar_white" y="0"/>
<use height="1052.3622" width="744.09448" x="4" xlink:href="#bar_black" y="0"/>
<use height="1052.3622" width="744.09448" x="6" xlink:href="#bar_black" y="0"/>
</g>
<g>
<use height="1052.3622" width="744.09448" x="-6" xlink:href="#bar_white" y="0"/>
<use height="1052.3622" width="744.09448" x="-4" xlink:href="#bar_black" y="0"/>
<use height="1052.3622" width="744.09448" x="-2" xlink:href="#bar_black" y="0"/>
<use height="1052.3622" width="744.09448" x="0" xlink:href="#bar_white" y="0"/>
<use height="1052.3622" width="744.09448" x="2" xlink:href="#bar_black" y="0"/>
<use height="1052.3622" width="744.09448" x="4" xlink:href="#bar_black" y="0"/>
<use height="1052.3622" width="744.09448" x="6" xlink:href="#bar_black" y="0"/>
</g>
<g>
<use height="1052.3622" width="744.09448" x="-6" xlink:href="#bar_white" y="0"/>
<use height="1052.3622" width="744.09448" x="-4" xlink:href="#bar_black" y="0"/>
<use height="1052.3622" width="744.09448" x="-2" xlink:href="#bar_black" y="0"/>
<use height="1052.3622" width="744.09448" x="0" xlink:href="#bar_black" y="0"/>
<use height="1052.3622" width="744.09448" x="2" xlink:href="#bar_white" y="0"/>
<use height="1052.3622" width="744.09448" x="4" xlink:href="#bar_black" y="0"/>
<use height="1052.3622" width="744.09448" x="6" xlink:href="#bar_black" y="0"/>
</g>
<g>
<use height="1052.3622" width="744.09448" x="-6" xlink:href="#bar_white" y="0"/>
<use height="1052.3622" width="744.09448" x="-4" xlink:href="#bar_black" y="0"/>
<use height="1052.3622" width="744.09448" x="-2" xlink:href="#bar_white" y="0"/>
<use height="1052.3622" width="744.09448" x="0" xlink:href="#bar_black" y="0"/>
<use height="1052.3622" width="744.09448" x="2" xlink:href="#bar_black" y="0"/>
<use height="1052.3622" width="744.09448" x="4" xlink:href="#bar_black" y="0"/>
<use height="1052.3622" width="744.09448" x="6" xlink:href="#bar_black" y="0"/>
</g>
<g>
<use height="1052.3622" width="744.09448" x="-6" xlink:href="#bar_white" y="0"/>
<use height="1052.3622" width="744.09448" x="-4" xlink:href="#bar_black" y="0"/>
<use height="1052.3622" width="744.09448" x="-2" xlink:href="#bar_black" y="0"/>
<use height="1052.3622" width="744.09448" x="0" xlink:href="#bar_white" y="0"/>
<use height="1052.3622" width="744.09448" x="2" xlink:href="#bar_white" y="0"/>
<use height="1052.3622" width="744.09448" x="4" xlink:href="#bar_white" y="0"/>
<use height="1052.3622" width="744.09448" x="6" xlink:href="#bar_black" y="0"/>
</g>
<g>
<use height="1052.3622" width="744.09448" x="-6" xlink:href="#bar_white" y="0"/>
<use height="1052.3622" width="744.09448" x="-4" xlink:href="#bar_black" y="0"/>
<use height="1052.3622" width="744.09448" x="-2" xlink:href="#bar_white" y="0"/>
<use height="1052.3622" width="744.09448" x="0" xlink:href="#bar_white" y="0"/>
<use height="1052.3622" width="744.09448" x="2" xlink:href="#bar_white" y="0"/>
<use height="1052.3622" width="744.09448" x="4" xlink:href="#bar_black" y="0"/>
<use height="1052.3622" width="744.09448" x="6" xlink:href="#bar_black" y="0"/>
</g>
<g>
<use height="1052.3622" width="744.09448" x="-6" xlink:href="#bar_white" y="0"/>
<use height="1052.3622" width="744.09448" x="-4" xlink:href="#bar_black" y="0"/>
<use height="1052.3622" width="744.09448" x="-2" xlink:href="#bar_black" y="0"/>
<use height="1052.3622" width="744.09448" x="0" xlink:href="#bar_black" y="0"/>
<use height="1052.3622" width="744.09448" x="2" xlink:href="#bar_black" y="0"/>
<use height="1052.3622" width="744.09448" x="4" xlink:href="#bar_white" y="0"/>
<use height="1052.3622" width="744.09448" x="6" xlink:href="#bar_black" y="0"/>
</g>
<g>
<use height="1052.3622" width="744.09448" x="-6" xlink:href="#bar_white" y="0"/>
<use height="1052.3622" width="744.09448" x="-4" xlink:href="#bar_white" y="0"/>
<use height="1052.3622" width="744.09448" x="-2" xlink:href="#bar_black" y="0"/>
<use height="1052.3622" width="744.09448" x="0" xlink:href="#bar_white" y="0"/>
<use height="1052.3622" width="744.09448" x="2" xlink:href="#bar_white" y="0"/>
<use height="1052.3622" width="744.09448" x="4" xlink:href="#bar_black" y="0"/>
<use height="1052.3622" width="744.09448" x="6" xlink:href="#bar_black" y="0"/>
</g>
<g>
<use height="1052.3622" width="744.09448" x="-6" xlink:href="#bar_white" y="0"/>
<use height="1052.3622" width="744.09448" x="-4" xlink:href="#bar_white" y="0"/>
<use height="1052.3622" width="744.09448" x="-2" xlink:href="#bar_black" y="0"/>
<use height="1052.3622" width="744.09448" x="0" xlink:href="#bar_black" y="0"/>
<use height="1052.3622" width="744.09448" x="2" xlink:href="#bar_white" y="0"/>
<use height="1052.3622" width="744.09448" x="4" xlink:href="#bar_white" y="0"/>
<use height="1052.3622" width="744.09448" x="6" xlink:href="#bar_black" y="0"/>
</g>
<g>
<use height="1052.3622" width="744.09448" x="-6" xlink:href="#bar_white" y="0"/>
<use height="1052.3622" width="744.09448" x="-4" xlink:href="#bar_white" y="0"/>
<use height="1052.3622" width="744.09448" x="-2" xlink:href="#bar_white" y="0"/>
<use height="1052.3622" width="744.09448" x="0" xlink:href="#bar_black" y="0"/>
<use height="1052.3622" width="744.09448" x="2" xlink:href="#bar_black" y="0"/>
<use height="1052.3622" width="744.09448" x="4" xlink:href="#bar_white" y="0"/>
<use height="1052.3622" width="744.09448" x="6" xlink:href="#bar_black" y="0"/>
</g>
<g>
<use height="1052.3622" width="744.09448" x="-4" xlink:href="#bar_white" y="0"/>
<use height="1052.3622" width="744.09448" x="-2" xlink:href="#bar_black" y="0"/>
<use height="1052.3622" width="744.09448" x="0" xlink:href="#bar_white" y="0"/>
<use height="1052.3622" width="744.09448" x="2" xlink:href="#bar_black" y="0"/>
<use height="1052.3622" width="744.09448" x="4" xlink:href="#bar_white" y="0"/>
</g>
<g>
<use height="1052.3622" width="744.09448" x="-2" xlink:href="#bar_black" y="0"/>
<use height="1052.3622" width="744.09448" x="0" xlink:href="#bar_white" y="0"/>
<use height="1052.3622" width="744.09448" x="2" xlink:href="#bar_black" y="0"/>
</g>
<rect height="140" id="bar_white" style="fill:#ffffff;stroke:none" width="2" x="-1" y="-75"/>
<rect height="140" id="bar_black" style="fill:#000000;stroke:none" width="2" x="-1" y="-75"/>
<radialGradient cx="863.74597" cy="-512.29071" fx="863.74597" fy="-512.29071" gradientTransform="matrix(-4.1030539e-2,-0.4971097,1.3145211,-0.1084976,1614.1376,-439.15565)" gradientUnits="userSpaceOnUse" r="494.28571" xlink:href="#linearGradient3017"/>
<radialGradient cx="-3279.2856" cy="338.07648" fx="-3279.2856" fy="338.07648" gradientTransform="matrix(-0.4068928,-2.3542162,2.9095339,-0.5028685,-5597.2485,-7212.0633)" gradientUnits="userSpaceOnUse" r="139.14285" xlink:href="#linearGradient3017"/>
<radialGradient cx="-3279.2856" cy="338.07648" fx="-3279.2856" fy="338.07648" gradientTransform="matrix(-0.4068928,-2.3542162,2.9095339,-0.5028685,-5432.5936,-7216.1039)" gradientUnits="userSpaceOnUse" r="139.14285" xlink:href="#linearGradient3017"/>
<radialGradient cx="-3419.3665" cy="320.1022" fx="-3419.3665" fy="320.1022" gradientTransform="matrix(0.2233821,-2.523141,2.5594526,0.2266158,449.29202,-7917.1356)" gradientUnits="userSpaceOnUse" r="138.5269" xlink:href="#linearGradient3017"/>
<radialGradient cx="-3279.2856" cy="338.07648" fx="-3279.2856" fy="338.07648" gradientTransform="matrix(-0.4068928,-2.3542162,2.9095339,-0.5028685,-2052.6767,-7588.7384)" gradientUnits="userSpaceOnUse" r="139.14285" xlink:href="#linearGradient3017"/>
<radialGradient cx="-3419.3665" cy="320.1022" fx="-3419.3665" fy="320.1022" gradientTransform="matrix(0.2233821,-2.523141,2.5594526,0.2266158,1247.6164,-8482.4779)" gradientUnits="userSpaceOnUse" id="radialGradient4577" r="138.5269" xlink:href="#linearGradient3017"/>
<radialGradient cx="-3419.3665" cy="320.1022" fx="-3419.3665" fy="320.1022" gradientTransform="matrix(0.2233821,-2.523141,2.5594526,0.2266158,451.29202,-7897.1356)" gradientUnits="userSpaceOnUse" r="138.5269" xlink:href="#linearGradient3017"/>
<radialGradient cx="534.24231" cy="536.51544" fx="534.24231" fy="536.51544" gradientTransform="matrix(2.3606614e-2,1.9221291,-1.8692724,2.2958216e-2,1279.7819,-470.83796)" gradientUnits="userSpaceOnUse" r="138.8895" xlink:href="#linearGradient4527"/>
<radialGradient cx="534.24231" cy="536.51544" fx="534.24231" fy="536.51544" gradientTransform="matrix(3.7261104e-3,0.3033923,-0.2950493,3.6237661e-3,158.7683,-162.94639)" gradientUnits="userSpaceOnUse" r="138.8895" xlink:href="#linearGradient4527"/>
<radialGradient cx="-3419.3665" cy="320.1022" fx="-3419.3665" fy="320.1022" gradientTransform="matrix(3.5259033e-2,-0.3982571,0.4039886,3.5769446e-2,27.997964,-1335.1266)" gradientUnits="userSpaceOnUse" r="138.5269" xlink:href="#linearGradient3017"/>
<radialGradient cx="-3419.3665" cy="320.1022" fx="-3419.3665" fy="320.1022" gradientTransform="matrix(3.5259033e-2,-0.3982571,0.4039886,3.5769446e-2,-67.17375,-1387.8061)" gradientUnits="userSpaceOnUse" r="138.5269" xlink:href="#linearGradient3017"/>
<radialGradient cx="534.24231" cy="536.51544" fx="534.24231" fy="536.51544" gradientTransform="matrix(3.7261104e-3,0.3033923,-0.2950493,3.6237661e-3,63.509319,-215.59785)" gradientUnits="userSpaceOnUse" r="138.8895" xlink:href="#linearGradient4527"/>
<radialGradient cx="534.24231" cy="536.51544" fx="534.24231" fy="536.51544" gradientTransform="matrix(3.7261104e-3,0.3033923,-0.2950493,3.6237661e-3,140.28555,-137.86648)" gradientUnits="userSpaceOnUse" r="138.8895" xlink:href="#linearGradient4527"/>
<radialGradient cx="-3419.3665" cy="320.1022" fx="-3419.3665" fy="320.1022" gradientTransform="matrix(3.5259033e-2,-0.3982571,0.4039886,3.5769446e-2,-56.222819,-1291.2624)" gradientUnits="userSpaceOnUse" r="138.5269" xlink:href="#linearGradient3017"/>
<radialGradient cx="-3419.3665" cy="320.1022" fx="-3419.3665" fy="320.1022" gradientTransform="matrix(3.5259033e-2,-0.3982571,0.4039886,3.5769446e-2,-67.17375,-1387.8061)" gradientUnits="userSpaceOnUse" r="138.5269" xlink:href="#linearGradient3017"/>
<radialGradient cx="-3419.3665" cy="320.1022" fx="-3419.3665" fy="320.1022" gradientTransform="matrix(3.5259033e-2,-0.3982571,0.4039886,3.5769446e-2,-67.17375,-1387.8061)" gradientUnits="userSpaceOnUse" r="138.5269" xlink:href="#linearGradient3017"/>
<radialGradient cx="534.24231" cy="536.51544" fx="534.24231" fy="536.51544" gradientTransform="matrix(3.7261104e-3,0.3033923,-0.2950493,3.6237661e-3,63.509319,-215.59785)" gradientUnits="userSpaceOnUse" r="138.8895" xlink:href="#linearGradient4527"/>
<radialGradient cx="-3419.3665" cy="320.1022" fx="-3419.3665" fy="320.1022" gradientTransform="matrix(3.5259033e-2,-0.3982571,0.4039886,3.5769446e-2,-67.17375,-1387.8061)" gradientUnits="userSpaceOnUse" r="138.5269" xlink:href="#linearGradient3017"/>
<radialGradient cx="-3419.3665" cy="320.1022" fx="-3419.3665" fy="320.1022" gradientTransform="matrix(3.5259033e-2,-0.3982571,0.4039886,3.5769446e-2,-67.17375,-1387.8061)" gradientUnits="userSpaceOnUse" r="138.5269" xlink:href="#linearGradient3017"/>
<radialGradient cx="534.24231" cy="536.51544" fx="534.24231" fy="536.51544" gradientTransform="matrix(3.7261104e-3,0.3033923,-0.2950493,3.6237661e-3,63.509319,-215.59785)" gradientUnits="userSpaceOnUse" r="138.8895" xlink:href="#linearGradient4527"/>
<radialGradient cx="534.24231" cy="536.51544" fx="534.24231" fy="536.51544" gradientTransform="matrix(3.7261104e-3,0.3033923,-0.2950493,3.6237661e-3,158.67299,-163.02549)" gradientUnits="userSpaceOnUse" id="radialGradient3473" r="138.8895" xlink:href="#linearGradient4527"/>
<radialGradient cx="-3419.3665" cy="320.1022" fx="-3419.3665" fy="320.1022" gradientTransform="matrix(3.5259033e-2,-0.3982571,0.4039886,3.5769446e-2,27.989918,-1335.2337)" gradientUnits="userSpaceOnUse" id="radialGradient3476" r="138.5269" xlink:href="#linearGradient3017"/>
<radialGradient cx="-3419.3665" cy="320.1022" fx="-3419.3665" fy="320.1022" gradientTransform="matrix(3.5259033e-2,-0.3982571,0.4039886,3.5769446e-2,27.989918,-1335.2337)" gradientUnits="userSpaceOnUse" id="radialGradient3479" r="138.5269" xlink:href="#linearGradient3017"/>
</defs>
<g>
<path d="M 4.444918,0.041108 C 2.23394,0.309894 0.163668,2.540208 0.163668,4.759858 L 0.163668,38.697358 C 0.163668,41.064985 2.546041,43.447358 4.913668,43.447358 L 38.81992,43.447358 C 41.18754,43.447358 43.56992,41.064985 43.56992,38.697358 L 43.56992,4.759858 C 43.56992,2.392229 41.18755,0.041108 38.81992,0.041108 L 4.913668,0.041108 C 4.765691,0.041108 4.592317,0.023189 4.444918,0.041108 z" style="fill:#ffffff;fill-opacity:1"/>
<rect height="420" rx="45.799999" ry="32.829956" style="opacity:1;fill:#000000;fill-opacity:1;fill-rule:nonzero;stroke:#000000;stroke-width:6;stroke-opacity:1" width="465" x="1016.3566" y="666.89624"/>
<path d="M -193.25871,72.073384 C -195.24742,72.817463 -198.47761,73.004097 -200.32963,72.481932 C -206.07946,70.860813 -209.67098,66.247999 -209.67098,60.484215 C -209.67098,54.327071 -205.24506,49.219262 -199.20917,48.410569 C -194.46424,47.774839 -190.22416,49.514274 -187.59803,53.173854 C -187.03837,53.953774 -185.42998,57.256195 -184.02386,60.512571 C -181.131,67.211973 -180.51919,68.090666 -178.5409,68.38733 C -177.84686,68.491408 -176.8967,68.492598 -176.42945,68.389974 C -174.54886,67.976921 -173.09365,65.85088 -173.66425,64.350051 C -174.01926,63.416307 -174.65109,63.049036 -177.98026,61.841259 C -182.36352,60.251055 -184.16398,58.580391 -184.49358,55.797434 C -184.83867,52.883554 -183.37466,50.240154 -180.77283,49.079392 C -179.06498,48.317464 -176.13024,48.328717 -174.62018,49.102979 C -173.2755,49.792451 -172.05426,51.424581 -171.55772,52.380732 C -172.62396,53.049908 -172.96264,53.238075 -174.36615,54.063927 C -174.62462,54.21601 -175.09137,53.606668 -175.55595,53.384232 C -177.3923,52.505004 -180.31845,52.534931 -180.31845,54.955633 C -180.31845,56.192782 -179.33798,56.869118 -175.86871,58.025131 C -170.89832,59.68134 -169.31716,61.389163 -169.3286,65.089118 C -169.34229,69.506075 -172.2601,72.304674 -177.11737,72.559614 C -180.17765,72.720237 -181.80571,72.161304 -183.63876,70.320759 C -184.84096,69.113625 -185.32194,68.250888 -187.30134,63.751276 C -190.33149,56.863003 -190.91909,55.729682 -191.99389,54.70049 C -194.94988,51.869934 -199.93687,51.931768 -202.94662,54.836291 C -204.51932,56.353993 -205.10715,57.69915 -205.25118,60.109836 C -205.35877,61.910817 -205.28383,62.394102 -204.69874,63.672101 C -203.89711,65.423121 -202.45151,66.905885 -200.70908,67.764357 C -199.71891,68.252201 -199.00778,68.381718 -197.40288,68.366521 C -194.77505,68.341636 -193.36349,67.210365 -191.41342,65.59001 C -190.46706,64.803672 -189.92629,64.146294 -189.69089,64.23663 C -189.4793,64.317826 -188.9606,65.19735 -188.53825,66.191128 L -187.7703,67.997997 L -188.31714,68.737189 C -189.09751,69.792073 -191.50436,71.416997 -193.25871,72.073384 z M -211.32829,77.759692 C -211.32829,80.127319 -208.96066,82.494946 -206.59303,82.494946 L -172.65705,82.494946 C -170.28942,82.494946 -167.92179,80.127319 -167.92179,77.759692 L -167.92179,43.823705 C -167.92179,41.456078 -170.28942,39.088451 -172.65705,39.088451 L -206.59303,39.088451 C -208.96066,39.088451 -211.32829,41.456078 -211.32829,43.823705 L -211.32829,77.759692 z" style="fill:#ffffff;fill-opacity:1"/>
<path d="M 1216.7332,88.70987 C 1241.4248,121.25415 1266.5141,160.7622 1279.0475,162.6417 C 1283.4445,163.30108 1289.4642,163.30862 1292.4245,162.65845 C 1304.3389,160.04157 1313.5583,146.57213 1309.9433,137.06369 C 1307.6941,131.148 1303.6912,128.82117 1282.5994,121.16935 C 1254.8294,111.09468 1243.4227,100.51026 1241.3345,82.87895 C 1239.1482,64.41819 1248.4234,47.67104 1264.9072,40.31708 C 1275.7272,35.48992 1294.3201,35.56121 1303.887,40.46652 C 1312.4062,44.83464 1320.1433,55.17493 1323.2891,61.23258 C 1316.534,65.47212 1314.3883,66.66424 1305.4964,71.89639 C 1303.8589,72.85991 1300.9019,68.99945 1297.9585,67.59021 C 1286.3244,62.0199 1267.7859,62.2095 1267.7859,77.54576 C 1267.7859,85.38366 1273.9976,89.66856 1295.977,96.99243 C 1327.4667,107.48527 1337.4841,118.30511 1337.4116,141.74602 C 1337.3249,169.72946 1318.8392,187.45987 1288.0662,189.07503 C 1268.6779,190.09265 1258.3634,186.55155 1246.7502,174.89086 C 1236.1275,158.35639 1209.1999,122.89757 1207.5023,117.18018 C 1213.219,102.13436 1215.2598,92.94518 1216.7332,88.70987 z M 1071.3244,222.0199 C 1071.3244,237.0199 1086.3244,252.0199 1101.3244,252.0199 L 1316.3244,252.0199 C 1331.3244,252.0199 1346.3244,237.0199 1346.3244,222.0199 L 1346.3244,7.0199001 C 1346.3244,-7.9800999 1331.3244,-22.9801 1316.3244,-22.9801 L 1101.3244,-22.9801 C 1086.3244,-22.9801 1071.3244,-7.9800999 1071.3244,7.0199001 L 1071.3244,222.0199 z" style="fill:url(#radialGradient4577);fill-opacity:1"/>
<path d="M 1109.5812,112.97019 C 1127.9088,155.41397 1131.7849,160.98089 1144.3183,162.86039 C 1148.7153,163.51977 1154.735,163.52731 1157.6953,162.87714 C 1169.6097,160.26026 1178.8291,146.79082 1175.2141,137.28238 C 1172.9649,131.36669 1168.962,129.03986 1147.8702,121.38804 C 1120.1002,111.31337 1108.6935,100.72895 1106.6053,83.09764 C 1104.419,64.63688 1113.6942,47.88973 1130.178,40.53577 C 1140.998,35.70861 1176.5338,37.46371 1185.4212,43.51364 C 1209.4968,59.90257 1229.2547,102.76977 1232.4005,108.82742 C 1225.6454,113.06696 1223.4997,114.25908 1214.6078,119.49123 C 1212.9703,120.45475 1197.2854,78.41053 1177.3714,67.8089 C 1165.9855,61.74737 1133.0567,62.42819 1133.0567,77.76445 C 1133.0567,85.60235 1139.2684,89.88725 1161.2478,97.21112 C 1192.7375,107.70396 1202.7549,118.5238 1202.6824,141.96471 C 1202.5957,169.94815 1184.11,187.67856 1153.337,189.29372 C 1133.9487,190.31134 1123.6342,186.77024 1112.021,175.10955 C 1101.3983,158.57508 1099.9266,147.15789 1098.229,141.4405 C 1102.5314,129.2231 1108.1078,117.2055 1109.5812,112.97019 z" style="fill:#f9f9f9;fill-opacity:1"/>
<path d="M 4.444918,0.041108 C 2.23394,0.309894 0.163668,2.540208 0.163668,4.759858 L 0.163668,38.697358 C 0.163668,41.064985 2.546041,43.447358 4.913668,43.447358 L 38.819918,43.447358 C 41.187544,43.447358 43.569918,41.064985 43.569918,38.697358 L 43.569918,4.759858 C 43.569919,2.392229 41.187545,0.041108 38.819918,0.041108 L 4.913668,0.041108 C 4.765691,0.041108 4.592317,0.023189 4.444918,0.041108 z M 15.319918,8.947358 C 17.112713,8.947382 19.425936,9.545396 22.288668,10.759858 L 19.788668,15.728608 C 18.053675,14.21052 16.45322,13.478627 15.007418,13.478608 C 14.110997,13.478628 13.352753,13.660319 12.694918,14.072358 C 12.037064,14.484433 11.694909,15.034634 11.694918,15.728608 C 11.694912,16.581655 12.469948,17.433425 14.038668,18.228608 C 15.607367,19.023822 16.825081,19.633731 17.663668,20.103608 C 18.502228,20.573512 19.1912,21.207442 19.726168,22.009858 C 20.261105,22.812296 20.5074,23.75013 20.507418,24.791108 C 20.507402,27.350207 19.579357,29.347629 17.663668,30.822358 C 15.74795,32.29709 13.298288,33.041108 10.319918,33.041108 C 7.775274,33.041108 5.280136,32.347466 2.851168,30.916108 L 5.694918,25.978608 C 7.50218,27.684675 9.272432,28.541112 11.007418,28.541108 C 12.106229,28.541112 13.041729,28.246772 13.757418,27.697358 C 14.473085,27.147954 14.819906,26.418394 14.819918,25.478608 C 14.819907,24.697876 14.147723,23.968316 12.788668,23.259858 C 11.429591,22.551418 10.235898,21.876674 9.194918,21.291108 C 8.153925,20.705564 7.362094,20.011923 6.819918,19.166108 C 6.277737,18.320319 5.976165,17.380152 5.976168,16.353608 C 5.976167,14.098154 6.894873,12.284758 8.694918,10.947358 C 10.494949,9.610002 12.702981,8.947382 15.319918,8.947358 z M 34.101168,8.947358 C 35.893965,8.947382 38.238436,9.545396 41.101168,10.759858 L 38.569918,15.728608 C 36.834923,14.21052 35.26572,13.478627 33.819918,13.478608 C 32.923499,13.478628 32.134003,13.660319 31.476168,14.072358 C 30.818312,14.484433 30.476159,15.034634 30.476168,15.728608 C 30.47616,16.581655 31.282448,17.433425 32.851168,18.228608 C 34.419865,19.023822 35.606331,19.633731 36.444918,20.103608 C 37.283477,20.573512 37.97245,21.207442 38.507418,22.009858 C 39.042353,22.812296 39.3199,23.75013 39.319918,24.791108 C 39.3199,27.350207 38.360607,29.347629 36.444918,30.822358 C 34.529198,32.29709 32.079538,33.041108 29.101168,33.041108 C 26.55653,33.041108 24.061386,32.347466 21.632418,30.916108 L 24.507418,25.978608 C 26.314686,27.684675 28.084932,28.541112 29.819918,28.541108 C 30.918727,28.541112 31.822979,28.246772 32.538668,27.697358 C 33.254333,27.147954 33.601156,26.418394 33.601168,25.478608 C 33.601156,24.697876 32.928973,23.968316 31.569918,23.259858 C 30.210843,22.551418 29.017148,21.876674 27.976168,21.291108 C 26.935173,20.705564 26.143344,20.011923 25.601168,19.166108 C 25.058985,18.320319 24.788665,17.380152 24.788668,16.353608 C 24.788665,14.098154 25.676123,12.284758 27.476168,10.947358 C 29.276204,9.610002 31.484231,8.947382 34.101168,8.947358 z" style="fill:#ffffff;fill-opacity:1"/>
<path d="M 4.444918,0.041108 C 2.23394,0.309894 0.163668,2.540208 0.163668,4.759858 L 0.163668,38.697358 C 0.163668,41.064985 2.546041,43.447358 4.913668,43.447358 L 38.819918,43.447358 C 41.187544,43.447358 43.569918,41.064985 43.569918,38.697358 L 43.569918,4.759858 C 43.569919,2.392229 41.187545,0.041108 38.819918,0.041108 L 4.913668,0.041108 C 4.765691,0.041108 4.592317,0.023189 4.444918,0.041108 z M 15.319918,8.947358 C 17.112713,8.947382 19.425936,9.545396 22.288668,10.759858 L 19.788668,15.728608 C 18.053675,14.21052 16.45322,13.478627 15.007418,13.478608 C 14.110997,13.478628 13.352753,13.660319 12.694918,14.072358 C 12.037064,14.484433 11.694909,15.034634 11.694918,15.728608 C 11.694912,16.581655 12.469948,17.433425 14.038668,18.228608 C 15.607367,19.023822 16.825081,19.633731 17.663668,20.103608 C 18.502228,20.573512 19.1912,21.207442 19.726168,22.009858 C 20.261105,22.812296 20.5074,23.75013 20.507418,24.791108 C 20.507402,27.350207 19.579357,29.347629 17.663668,30.822358 C 15.74795,32.29709 13.298288,33.041108 10.319918,33.041108 C 7.775274,33.041108 5.280136,32.347466 2.851168,30.916108 L 5.694918,25.978608 C 7.50218,27.684675 9.272432,28.541112 11.007418,28.541108 C 12.106229,28.541112 13.041729,28.246772 13.757418,27.697358 C 14.473085,27.147954 14.819906,26.418394 14.819918,25.478608 C 14.819907,24.697876 14.147723,23.968316 12.788668,23.259858 C 11.429591,22.551418 10.235898,21.876674 9.194918,21.291108 C 8.153925,20.705564 7.362094,20.011923 6.819918,19.166108 C 6.277737,18.320319 5.976165,17.380152 5.976168,16.353608 C 5.976167,14.098154 6.894873,12.284758 8.694918,10.947358 C 10.494949,9.610002 12.702981,8.947382 15.319918,8.947358 z M 34.101168,8.947358 C 35.893965,8.947382 38.238436,9.545396 41.101168,10.759858 L 38.569918,15.728608 C 36.834923,14.21052 35.26572,13.478627 33.819918,13.478608 C 32.923499,13.478628 32.134003,13.660319 31.476168,14.072358 C 30.818312,14.484433 30.476159,15.034634 30.476168,15.728608 C 30.47616,16.581655 31.282448,17.433425 32.851168,18.228608 C 34.419865,19.023822 35.606331,19.633731 36.444918,20.103608 C 37.283477,20.573512 37.97245,21.207442 38.507418,22.009858 C 39.042353,22.812296 39.3199,23.75013 39.319918,24.791108 C 39.3199,27.350207 38.360607,29.347629 36.444918,30.822358 C 34.529198,32.29709 32.079538,33.041108 29.101168,33.041108 C 26.55653,33.041108 24.061386,32.347466 21.632418,30.916108 L 24.507418,25.978608 C 26.314686,27.684675 28.084932,28.541112 29.819918,28.541108 C 30.918727,28.541112 31.822979,28.246772 32.538668,27.697358 C 33.254333,27.147954 33.601156,26.418394 33.601168,25.478608 C 33.601156,24.697876 32.928973,23.968316 31.569918,23.259858 C 30.210843,22.551418 29.017148,21.876674 27.976168,21.291108 C 26.935173,20.705564 26.143344,20.011923 25.601168,19.166108 C 25.058985,18.320319 24.788665,17.380152 24.788668,16.353608 C 24.788665,14.098154 25.676123,12.284758 27.476168,10.947358 C 29.276204,9.610002 31.484231,8.947382 34.101168,8.947358 z" style="fill:url(#radialGradient3479);fill-opacity:1"/>
<path d="M 4.444918,0.041108 C 2.23394,0.309894 0.163668,2.540208 0.163668,4.759858 L 0.163668,38.697358 C 0.163668,41.064985 2.546041,43.447358 4.913668,43.447358 L 38.819918,43.447358 C 41.187544,43.447358 43.569918,41.064985 43.569918,38.697358 L 43.569918,4.759858 C 43.569919,2.392229 41.187545,0.041108 38.819918,0.041108 L 4.913668,0.041108 C 4.765691,0.041108 4.592317,0.023189 4.444918,0.041108 z M 15.319918,8.947358 C 17.112713,8.947382 19.425936,9.545396 22.288668,10.759858 L 19.788668,15.728608 C 18.053675,14.21052 16.45322,13.478627 15.007418,13.478608 C 14.110997,13.478628 13.352753,13.660319 12.694918,14.072358 C 12.037064,14.484433 11.694909,15.034634 11.694918,15.728608 C 11.694912,16.581655 12.469948,17.433425 14.038668,18.228608 C 15.607367,19.023822 16.825081,19.633731 17.663668,20.103608 C 18.502228,20.573512 19.1912,21.207442 19.726168,22.009858 C 20.261105,22.812296 20.5074,23.75013 20.507418,24.791108 C 20.507402,27.350207 19.579357,29.347629 17.663668,30.822358 C 15.74795,32.29709 13.298288,33.041108 10.319918,33.041108 C 7.775274,33.041108 5.280136,32.347466 2.851168,30.916108 L 5.694918,25.978608 C 7.50218,27.684675 9.272432,28.541112 11.007418,28.541108 C 12.106229,28.541112 13.041729,28.246772 13.757418,27.697358 C 14.473085,27.147954 14.819906,26.418394 14.819918,25.478608 C 14.819907,24.697876 14.147723,23.968316 12.788668,23.259858 C 11.429591,22.551418 10.235898,21.876674 9.194918,21.291108 C 8.153925,20.705564 7.362094,20.011923 6.819918,19.166108 C 6.277737,18.320319 5.976165,17.380152 5.976168,16.353608 C 5.976167,14.098154 6.894873,12.284758 8.694918,10.947358 C 10.494949,9.610002 12.702981,8.947382 15.319918,8.947358 z M 34.101168,8.947358 C 35.893965,8.947382 38.238436,9.545396 41.101168,10.759858 L 38.569918,15.728608 C 36.834923,14.21052 35.26572,13.478627 33.819918,13.478608 C 32.923499,13.478628 32.134003,13.660319 31.476168,14.072358 C 30.818312,14.484433 30.476159,15.034634 30.476168,15.728608 C 30.47616,16.581655 31.282448,17.433425 32.851168,18.228608 C 34.419865,19.023822 35.606331,19.633731 36.444918,20.103608 C 37.283477,20.573512 37.97245,21.207442 38.507418,22.009858 C 39.042353,22.812296 39.3199,23.75013 39.319918,24.791108 C 39.3199,27.350207 38.360607,29.347629 36.444918,30.822358 C 34.529198,32.29709 32.079538,33.041108 29.101168,33.041108 C 26.55653,33.041108 24.061386,32.347466 21.632418,30.916108 L 24.507418,25.978608 C 26.314686,27.684675 28.084932,28.541112 29.819918,28.541108 C 30.918727,28.541112 31.822979,28.246772 32.538668,27.697358 C 33.254333,27.147954 33.601156,26.418394 33.601168,25.478608 C 33.601156,24.697876 32.928973,23.968316 31.569918,23.259858 C 30.210843,22.551418 29.017148,21.876674 27.976168,21.291108 C 26.935173,20.705564 26.143344,20.011923 25.601168,19.166108 C 25.058985,18.320319 24.788665,17.380152 24.788668,16.353608 C 24.788665,14.098154 25.676123,12.284758 27.476168,10.947358 C 29.276204,9.610002 31.484231,8.947382 34.101168,8.947358 z" style="fill:url(#radialGradient3476);fill-opacity:1"/>
<path d="M 0.236763,38.876927 C 0.236763,41.242652 2.602488,43.608373 4.968213,43.608373 L 38.876928,43.608373 C 41.242653,43.608373 43.608376,41.242652 43.608376,38.876927 L 43.608376,4.968211 C 43.608376,2.602486 41.242653,0.236763 38.876928,0.236763 L 4.968213,0.236763 C 2.602488,0.236763 0.236763,2.602486 0.236763,4.968211 L 0.236763,38.876927 z" style="fill:none;fill-opacity:1;stroke:url(#radialGradient3473);stroke-width:0.4735254;stroke-opacity:1"/>
</g>
</svg>
